<svg width="532" height="240" viewBox="0 0 532 240" fill="none" xmlns="http://www.w3.org/2000/svg">
<path fill-rule="evenodd" clip-rule="evenodd" d="M303.176 0C303.935 0 304.418 0.813144 304.054 1.47954L279.774 45.9088C279.599 46.2296 279.263 46.4292 278.897 46.4292H255.095C254.73 46.4292 254.393 46.2296 254.218 45.9088L229.939 1.47954C229.575 0.813144 230.057 0 230.816 0H303.176Z" fill="#FF5B37"/>
<path d="M168.434 1.49007C168.06 0.823471 168.542 0.000488281 169.306 0.000488281H203.537C203.902 0.000488281 204.238 0.199406 204.414 0.51944L265.808 112.409C266.188 113.101 267.182 113.101 267.562 112.409L328.956 0.519451C329.132 0.199416 329.468 0.000488281 329.833 0.000488281H364.064C364.828 0.000488281 365.31 0.82347 364.936 1.49006L279.587 153.5C279.41 153.815 279.077 154.01 278.715 154.01H254.654C254.293 154.01 253.959 153.815 253.782 153.5L168.434 1.49007Z" fill="#FF5B37"/>
<path d="M110.007 0C139.342 0 154.01 12.8341 154.01 38.5024V43.0027C154.01 43.555 153.562 44.0027 153.01 44.0027H122.007C121.455 44.0027 121.007 43.555 121.007 43.0027V38.5024C121.007 34.8355 117.341 33.002 110.007 33.002H44.0027C36.6689 33.002 33.002 34.8355 33.002 38.5024V55.0034C33.002 58.6703 36.6689 60.5037 44.0027 60.5037H110.007C139.342 60.5037 154.01 73.3379 154.01 99.0061V115.507C154.01 141.175 139.342 154.01 110.007 154.01H44.0027C14.6676 154.01 0 141.175 0 115.507V111.007C0 110.455 0.447715 110.007 1 110.007H32.002C32.5543 110.007 33.002 110.455 33.002 111.007V115.507C33.002 119.174 36.6689 121.007 44.0027 121.007H110.007C117.341 121.007 121.007 119.174 121.007 115.507V99.0061C121.007 95.3392 117.341 93.5058 110.007 93.5058H44.0027C14.6676 93.5058 0 80.6717 0 55.0034V38.5024C0 12.8341 14.6676 0 44.0027 0H110.007Z" fill="#FF5B37"/>
<path d="M413.343 93.5058C412.79 93.5058 412.343 93.9535 412.343 94.5058V153.01C412.343 153.562 411.895 154.01 411.343 154.01H380.363C379.811 154.01 379.363 153.562 379.363 153.01V0.999998C379.363 0.447713 379.811 0 380.363 0H411.343C411.895 0 412.343 0.447715 412.343 1V59.5037C412.343 60.056 412.79 60.5037 413.343 60.5037H443.701C444.021 60.5037 444.322 60.3503 444.51 60.0911L487.825 0.412612C488.013 0.153411 488.314 0 488.634 0H529.108C529.932 0 530.402 0.940853 529.907 1.60008L473.793 76.4047C473.526 76.7603 473.526 77.2493 473.793 77.6048L529.907 152.409C530.402 153.069 529.932 154.01 529.108 154.01H488.634C488.314 154.01 488.013 153.856 487.825 153.597L444.51 93.9184C444.322 93.6592 444.021 93.5058 443.701 93.5058H413.343Z" fill="#FF5B37"/>
<path d="M62.896 239.416V205.183H74.5828C77.3097 205.183 79.5334 205.962 81.2539 207.521C82.9745 209.079 83.8348 211.173 83.8348 213.802C83.8348 217.308 82.3902 219.792 79.5009 221.252V221.35C81.2539 221.837 82.6499 222.859 83.6887 224.418C84.7275 225.976 85.2469 227.778 85.2469 229.823C85.2469 232.777 84.273 235.114 82.3252 236.835C80.3774 238.555 77.9265 239.416 74.9723 239.416H62.896ZM66.2559 220.035H74.5828C76.3033 220.035 77.6992 219.483 78.7705 218.379C79.8418 217.276 80.3774 215.831 80.3774 214.046C80.3774 212.293 79.8418 210.88 78.7705 209.809C77.7317 208.738 76.3033 208.202 74.4854 208.202H66.2559V220.035ZM66.2559 236.397H75.021C77.0987 236.397 78.738 235.796 79.9392 234.595C81.1403 233.394 81.7409 231.771 81.7409 229.725C81.7409 227.68 81.1079 226.041 79.8418 224.807C78.6082 223.574 76.985 222.957 74.9723 222.957H66.2559V236.397Z" fill="#242424"/>
<path d="M95.824 239.416V205.183H99.1839V239.416H95.824Z" fill="#242424"/>
<path d="M110.651 239.416L113.378 205.183H116.835L125.844 225.294L127.499 229.482H127.597C128.181 227.859 128.733 226.463 129.252 225.294L138.261 205.183H141.718L144.445 239.416H141.085L139.186 215.458L139.089 210.686H138.991C138.309 212.698 137.709 214.289 137.189 215.458L129.106 233.037H125.99L117.955 215.458L116.105 210.588H116.007C116.04 212.601 116.007 214.224 115.91 215.458L114.011 239.416H110.651Z" fill="#242424"/>
<path d="M154.564 227.096V224.077H168.393V227.096H154.564Z" fill="#242424"/>
<path d="M184.659 239.416L175.796 205.183H179.351L185.974 231.771L186.753 235.423H186.85C187.077 234.189 187.37 232.972 187.727 231.771L195.031 205.183H198.245L205.549 231.771L206.377 235.423H206.474C206.669 234.157 206.912 232.939 207.205 231.771L214.168 205.183H217.674L208.519 239.416H204.526L197.904 215.312L196.687 210.199H196.54C196.151 212.147 195.745 213.851 195.323 215.312L188.701 239.416H184.659Z" fill="#242424"/>
<path d="M224.344 222.032C224.344 217.13 225.999 213.007 229.311 209.663C232.654 206.287 236.81 204.599 241.776 204.599C246.776 204.599 250.931 206.271 254.242 209.614C257.554 212.958 259.209 217.097 259.209 222.032C259.209 227.096 257.554 231.365 254.242 234.838C250.931 238.279 246.776 240 241.776 240C236.81 240 232.654 238.279 229.311 234.838C225.999 231.365 224.344 227.096 224.344 222.032ZM227.85 222.032C227.85 226.219 229.164 229.742 231.794 232.598C234.456 235.423 237.783 236.835 241.776 236.835C245.769 236.835 249.081 235.423 251.71 232.598C254.372 229.774 255.703 226.252 255.703 222.032C255.703 217.974 254.372 214.581 251.71 211.854C249.081 209.127 245.769 207.764 241.776 207.764C237.783 207.764 234.456 209.127 231.794 211.854C229.164 214.581 227.85 217.974 227.85 222.032Z" fill="#242424"/>
<path d="M269.737 239.416V205.183H280.109C282.836 205.183 284.93 205.508 286.39 206.157C289.767 207.78 291.455 210.637 291.455 214.727C291.455 217.032 290.854 219.045 289.653 220.766C288.452 222.486 286.877 223.622 284.93 224.174V224.272C285.189 224.564 285.498 225.018 285.855 225.635L293.305 239.416H289.409L281.716 225.002H273.097V239.416H269.737ZM273.097 221.983H281.229C283.274 221.983 284.913 221.334 286.147 220.035C287.381 218.704 287.997 216.967 287.997 214.825C287.997 213.461 287.673 212.26 287.023 211.221C286.407 210.15 285.53 209.355 284.394 208.835C283.452 208.413 281.959 208.202 279.914 208.202H273.097V221.983Z" fill="#242424"/>
<path d="M302.712 239.416V205.183H306.072V220.035H311.818L321.07 205.183H324.917L314.643 221.35V221.447L325.599 239.416H321.655L311.818 223.054H306.072V239.416H302.712Z" fill="#242424"/>
<path d="M331.774 235.617L333.771 233.037C334.907 234.14 336.254 235.049 337.813 235.764C339.403 236.445 341.01 236.786 342.633 236.786C344.679 236.786 346.334 236.25 347.6 235.179C348.899 234.108 349.548 232.696 349.548 230.943C349.548 229.774 349.223 228.751 348.574 227.875C347.957 226.966 347.146 226.219 346.139 225.635C345.165 225.018 344.062 224.45 342.828 223.931C341.627 223.379 340.41 222.811 339.176 222.226C337.975 221.642 336.871 221.009 335.865 220.327C334.891 219.613 334.079 218.704 333.43 217.6C332.813 216.464 332.505 215.182 332.505 213.753C332.505 210.994 333.527 208.787 335.573 207.131C337.618 205.443 340.182 204.599 343.266 204.599C346.935 204.599 349.954 205.703 352.324 207.91L350.668 210.734C349.727 209.858 348.574 209.16 347.211 208.641C345.847 208.089 344.484 207.813 343.12 207.813C341.108 207.813 339.403 208.332 338.007 209.371C336.644 210.41 335.962 211.806 335.962 213.559C335.962 214.662 336.271 215.653 336.887 216.529C337.537 217.373 338.348 218.071 339.322 218.623C340.328 219.175 341.432 219.71 342.633 220.23C343.867 220.749 345.084 221.301 346.285 221.885C347.519 222.47 348.623 223.119 349.597 223.833C350.603 224.547 351.415 225.489 352.031 226.658C352.681 227.794 353.005 229.109 353.005 230.602C353.005 233.329 352.064 235.585 350.181 237.37C348.298 239.123 345.75 240 342.536 240C338.283 240 334.696 238.539 331.774 235.617Z" fill="#242424"/>
<path d="M363.337 239.416V205.183H366.697V220.766H386.516V205.183H389.925V239.416H386.516V223.785H366.697V239.416H363.337Z" fill="#242424"/>
<path d="M400.349 222.032C400.349 217.13 402.004 213.007 405.316 209.663C408.659 206.287 412.815 204.599 417.782 204.599C422.781 204.599 426.936 206.271 430.247 209.614C433.559 212.958 435.214 217.097 435.214 222.032C435.214 227.096 433.559 231.365 430.247 234.838C426.936 238.279 422.781 240 417.782 240C412.815 240 408.659 238.279 405.316 234.838C402.004 231.365 400.349 227.096 400.349 222.032ZM403.855 222.032C403.855 226.219 405.17 229.742 407.799 232.598C410.461 235.423 413.789 236.835 417.782 236.835C421.775 236.835 425.086 235.423 427.715 232.598C430.377 229.774 431.708 226.252 431.708 222.032C431.708 217.974 430.377 214.581 427.715 211.854C425.086 209.127 421.775 207.764 417.782 207.764C413.789 207.764 410.461 209.127 407.799 211.854C405.17 214.581 403.855 217.974 403.855 222.032Z" fill="#242424"/>
<path d="M445.742 239.416V205.183H457.575C460.659 205.183 463.191 206.125 465.171 208.007C467.151 209.89 468.142 212.39 468.142 215.506C468.142 218.655 467.151 221.188 465.171 223.103C463.191 225.018 460.659 225.976 457.575 225.976H449.102V239.416H445.742ZM449.102 222.957H457.137C459.441 222.957 461.276 222.291 462.639 220.96C464.003 219.629 464.684 217.811 464.684 215.506C464.684 213.234 464.003 211.449 462.639 210.15C461.308 208.852 459.49 208.202 457.185 208.202H449.102V222.957Z" fill="#242424"/>
</svg>
