<svg width="279" height="220" viewBox="0 0 279 220" fill="none" xmlns="http://www.w3.org/2000/svg">
<path fill-rule="evenodd" clip-rule="evenodd" d="M3.04587 0C0.720751 0 -0.744482 2.50305 0.393847 4.53047L120.501 218.448C121.039 219.406 122.053 220 123.153 220H155.635C156.735 220 157.749 219.406 158.288 218.448L278.395 4.53047C279.533 2.50306 278.068 0 275.743 0H230.554C229.444 0 228.422 0.604998 227.888 1.57837L142.061 157.996C140.906 160.1 137.883 160.1 136.728 157.996L50.9005 1.57837C50.3664 0.604998 49.3443 0 48.2341 0H3.04587ZM191.141 5.09428C192.249 3.06748 190.782 0.594335 188.472 0.594335H91.1973C88.8876 0.594335 87.4208 3.06748 88.5283 5.09428L121.124 64.7416C121.657 65.7175 122.68 66.3245 123.793 66.3245H155.877C156.989 66.3245 158.012 65.7175 158.546 64.7416L191.141 5.09428Z" fill="#FF5B37"/>
</svg>
