<svg width="579" height="579" viewBox="0 0 579 579" fill="none" xmlns="http://www.w3.org/2000/svg">
<path fill-rule="evenodd" clip-rule="evenodd" d="M217.011 116.509L220.601 115.294L219.238 91.8958C219.142 89.7593 218.783 86.9888 218.783 86.9888L218.912 86.9448C218.912 86.9448 220.31 89.3641 221.53 91.1201L234.657 110.538L238.203 109.338L236.045 76.1821L232.931 77.2359L234.738 102.943C234.876 104.631 235.187 106.406 235.187 106.406L235.1 106.435C235.1 106.435 234.241 104.894 233.267 103.44L218.789 82.0219L215.934 82.9878L217.438 108.797C217.504 110.558 217.758 112.304 217.758 112.304L217.671 112.333C217.671 112.333 216.797 110.749 215.881 109.324L202.008 87.7006L198.851 88.769L217.011 116.509ZM163.483 149.953L166 148.058L153.91 129.041C152.976 127.573 151.237 125.339 151.237 125.339L151.309 125.284C151.309 125.284 153.897 127.051 155.442 127.888L171.375 136.523L173.709 134.766L169.849 117.039C169.444 115.287 168.507 112.449 168.507 112.449L168.58 112.394C168.58 112.394 170.192 114.61 171.345 115.913L186.28 132.788L188.797 130.893L167.446 106.789L164.857 108.739L169.452 128.884C169.857 130.636 170.574 132.954 170.574 132.954L170.501 133.009C170.501 133.009 168.471 131.68 166.899 130.806L148.808 120.823L146.218 122.773L163.483 149.953ZM157.683 156.35L155.455 158.578L132.765 135.875L134.993 133.648L157.683 156.35ZM135.376 182.184L142.443 173.337C145.806 169.127 145.888 163.758 141.428 160.196C138.432 157.802 134.624 157.449 131.859 159.447L131.787 159.39C132.363 156.694 131.469 153.935 128.865 151.855C124.941 148.721 120.271 149.665 117.137 153.589L110.298 162.151L135.376 182.184ZM123.144 168.381L114.476 161.456L119.291 155.427C121.429 152.752 124.452 152.479 127.02 154.53C129.625 156.611 130.04 159.748 128.017 162.281L123.144 168.381ZM135.131 177.956L125.285 170.091L130.386 163.705C132.722 160.78 136.309 160.314 139.305 162.708C142.302 165.101 142.682 168.502 140.26 171.535L135.131 177.956ZM109.826 235.333L108.803 238.313L78.4438 227.893L82.0457 217.399C83.8985 212.001 88.8034 209.243 94.4174 211.17C100.075 213.112 102.339 218.33 100.486 223.728L97.9067 231.242L109.826 235.333ZM82.1441 225.832L95.2292 230.323L97.6749 223.198C99.0682 219.138 97.5108 215.659 93.3651 214.236C89.2624 212.828 85.9831 214.647 84.6046 218.663L82.1441 225.832ZM85.3791 274.059C94.7054 275.591 103.137 269.897 104.654 260.661C106.179 251.38 100.005 243.332 90.6789 241.8C81.623 240.312 73.4244 245.998 71.8996 255.28C70.3822 264.516 76.3232 272.571 85.3791 274.059ZM85.9121 270.815C78.4331 269.586 73.6142 263.15 74.8281 255.761C76.0494 248.327 82.667 243.815 90.146 245.044C97.8953 246.317 102.947 252.746 101.726 260.18C100.512 267.569 93.6614 272.088 85.9121 270.815ZM102.074 305.107L102.144 308.257L70.0542 308.97L69.9841 305.82L84.5912 305.496L84.1781 286.917L69.5711 287.242L69.5001 284.047L101.59 283.333L101.661 286.529L87.0082 286.854L87.4213 305.433L102.074 305.107ZM462.178 217.096L465.931 227.779C467.717 232.862 472.226 235.779 477.611 233.887C481.229 232.616 483.549 229.575 483.32 226.17L483.407 226.14C485.387 228.058 488.2 228.763 491.344 227.658C496.083 225.994 497.758 221.533 496.093 216.795L492.461 206.457L462.178 217.096ZM480.367 214.045L490.835 210.367L493.392 217.647C494.527 220.878 493.156 223.586 490.054 224.676C486.91 225.781 484.029 224.47 482.955 221.411L480.367 214.045ZM465.893 219.13L477.782 214.953L480.491 222.664C481.732 226.196 480.226 229.484 476.607 230.755C472.989 232.026 469.904 230.546 468.617 226.884L465.893 219.13ZM472.248 249.9L471.54 246.83L502.818 239.622L503.525 242.692L472.248 249.9ZM474.419 257.608L474.702 260.746L497.235 260.505C498.975 260.486 501.79 260.186 501.79 260.186L501.798 260.277C501.798 260.277 498.933 261.544 497.407 262.415L481.666 271.396L481.928 274.307L499.024 280.377C500.727 280.957 503.632 281.658 503.632 281.658L503.64 281.749C503.64 281.749 500.908 281.95 499.192 282.242L476.978 286.03L477.261 289.167L509 283.742L508.709 280.514L489.171 273.792C487.468 273.212 485.121 272.598 485.121 272.598L485.113 272.507C485.113 272.507 487.313 271.484 488.884 270.609L506.907 260.505L506.617 257.276L474.419 257.608ZM487.26 309.133L488.129 296.195L490.953 296.385L490.084 309.323L487.26 309.133ZM474.584 319.726L473.725 323.417L494.33 334.589C496.196 335.633 498.74 336.787 498.74 336.787L498.709 336.921C498.709 336.921 495.917 336.833 493.781 336.946L470.361 337.87L469.512 341.516L498.828 357.153L499.574 353.951L476.773 341.941C475.266 341.168 473.593 340.497 473.593 340.497L473.614 340.409C473.614 340.409 475.376 340.491 477.125 340.429L502.958 339.41L503.641 336.475L480.914 324.153C479.382 323.281 477.765 322.576 477.765 322.576L477.785 322.487C477.785 322.487 479.592 322.58 481.286 322.552L506.974 322.156L507.73 318.909L474.584 319.726ZM459.346 366.898C463.207 358.371 472.826 355.057 481.436 358.955C489.797 362.74 493.446 372.06 489.586 380.587C485.707 389.156 476.314 392.522 467.954 388.737C459.343 384.839 455.467 375.466 459.346 366.898ZM486.882 379.363C489.97 372.542 486.985 365.076 480.08 361.95C472.926 358.711 465.138 361.3 462.05 368.122C458.943 374.985 462.155 382.503 469.309 385.742C476.214 388.868 483.775 386.226 486.882 379.363ZM450.344 386.055L448.574 388.661L459.754 396.255L455.213 402.94L439.98 401.314L437.927 404.335L452.541 405.817C453.541 405.889 454.086 405.817 454.086 405.817L454.162 405.869C452.94 409.455 454.463 413.47 458.051 415.907C461.262 418.087 464.618 418.104 467.367 416.494C468.602 415.732 469.713 414.665 471.432 412.134L476.896 404.09L450.344 386.055ZM462.095 397.845L472.784 405.105L469.193 410.393C467.91 412.281 467.194 413.01 466.341 413.534C464.343 414.771 461.912 414.61 459.797 413.174C456.474 410.916 455.631 407.363 457.811 404.153L462.095 397.845ZM431.065 412.391L433.191 410.066L456.876 431.729L454.75 434.053L444.474 424.655L440.838 428.631L445.259 444.43L442.824 447.092L438.141 429.753L438.073 429.691L418.708 425.901L421.204 423.172L438.749 426.72L442.385 422.744L431.065 412.391ZM418.896 430.385C415.168 430.032 411.351 431.292 408.501 433.649C403.716 437.606 403.41 442.896 406.552 446.696C410.079 450.96 414.879 449.553 419.331 448.249C423.181 447.121 426.771 446.069 429.051 448.827C431.204 451.43 430.127 454.928 427.312 457.256C425.342 458.885 422.497 459.816 420.113 459.655L420.604 462.685C423.602 462.872 426.805 461.586 429.127 459.665C433.49 456.057 434.779 450.666 431.433 446.62C428.096 442.585 423.445 443.9 419.037 445.145C415.064 446.268 411.288 447.335 408.847 444.383C406.723 441.815 407.431 438.444 410.351 436.029C412.814 433.993 416.196 433.21 418.996 433.443L418.896 430.385ZM393.619 445.771L396.33 444.166L412.681 471.787L409.97 473.392L402.527 460.819L386.536 470.285L393.979 482.858L391.228 484.486L374.878 456.865L377.628 455.237L385.094 467.849L401.085 458.383L393.619 445.771ZM373.523 475.948C370.321 467.055 361.243 462.462 352.436 465.633C343.587 468.819 339.562 478.129 342.764 487.021C345.873 495.656 354.831 500.05 363.68 496.864C372.487 493.693 376.631 484.582 373.523 475.948ZM370.43 477.061C372.997 484.192 369.72 491.535 362.675 494.071C355.587 496.623 348.424 493.039 345.857 485.908C343.197 478.519 346.353 470.977 353.442 468.425C360.487 465.889 367.769 469.672 370.43 477.061ZM328.104 473.272L331.206 472.717L336.855 504.314L325.933 506.267C320.315 507.271 315.521 504.325 314.476 498.482C313.424 492.594 316.884 488.079 322.502 487.075L330.322 485.677L328.104 473.272ZM333.255 502.082L330.82 488.463L323.404 489.789C319.18 490.545 316.896 493.597 317.667 497.911C318.431 502.181 321.614 504.163 325.794 503.416L333.255 502.082ZM268.806 476.481L257.646 474.564C252.336 473.651 247.595 476.172 246.628 481.797C245.979 485.577 247.507 489.083 250.593 490.539L250.577 490.629C247.939 491.427 245.954 493.541 245.389 496.826C244.539 501.776 247.621 505.409 252.571 506.26L263.37 508.116L268.806 476.481ZM262.624 493.857L260.745 504.792L253.14 503.485C249.765 502.905 248.066 500.39 248.623 497.15C249.187 493.865 251.734 491.986 254.929 492.535L262.624 493.857ZM265.222 478.738L263.088 491.157L255.033 489.773C251.343 489.139 249.203 486.224 249.853 482.444C250.502 478.664 253.297 476.689 257.122 477.346L265.222 478.738ZM235.299 469.32L238.327 470.19L229.466 501.04L226.438 500.17L235.299 469.32ZM227.262 467.361L224.382 466.082L213.639 485.891C212.81 487.421 211.703 490.027 211.703 490.027L211.62 489.99C211.62 489.99 211.906 486.87 211.887 485.113L211.69 466.991L209.019 465.805L195.403 477.794C194.069 479 192.044 481.199 192.044 481.199L191.96 481.161C191.96 481.161 193.114 478.676 193.692 477.035L201.181 455.781L198.301 454.503L187.613 484.876L190.576 486.192L205.948 472.385C207.283 471.179 208.96 469.426 208.96 469.426L209.044 469.463C209.044 469.463 208.868 471.883 208.869 473.682L208.937 494.344L211.9 495.659L227.262 467.361ZM176.193 453.713L187.103 460.721L185.573 463.103L174.663 456.095L176.193 453.713ZM173.092 437.516L170.277 434.979L150.535 447.613C148.719 448.742 146.478 450.411 146.478 450.411L146.376 450.319C146.376 450.319 147.803 447.917 148.737 445.993L159.253 425.046L156.471 422.54L128.608 440.64L131.051 442.841L152.589 428.691C153.994 427.745 155.39 426.605 155.39 426.605L155.458 426.666C155.458 426.666 154.534 428.169 153.742 429.73L142.143 452.835L144.381 454.852L166.157 440.916C167.661 439.997 169.06 438.922 169.06 438.922L169.127 438.983C169.127 438.983 168.173 440.52 167.378 442.016L155.303 464.693L157.78 466.924L173.092 437.516ZM139.104 401.172C144.649 408.713 142.827 418.722 135.213 424.321C127.819 429.757 117.905 428.375 112.361 420.834C106.789 413.256 108.454 403.419 115.848 397.982C123.462 392.384 133.533 393.594 139.104 401.172ZM114.752 419.076C119.187 425.109 127.159 426.162 133.265 421.672C139.592 417.021 141.149 408.963 136.713 402.93C132.25 396.86 124.122 395.979 117.795 400.631C111.689 405.121 110.289 413.007 114.752 419.076ZM126.998 384.395L125.584 381.58L113.506 387.642L109.88 380.42L118.723 367.91L117.084 364.645L108.67 376.685C108.12 377.523 107.916 378.034 107.916 378.034L107.835 378.075C105.298 375.261 101.05 374.634 97.1738 376.58C93.7052 378.321 92.0557 381.243 92.1219 384.429C92.1854 385.878 92.5756 387.368 93.9479 390.102L98.3105 398.794L126.998 384.395ZM110.976 388.912L99.4273 394.709L96.5598 388.996C95.5358 386.955 95.2484 385.976 95.206 384.975C95.1003 382.627 96.4244 380.583 98.7096 379.436C102.301 377.634 105.814 378.629 107.555 382.098L110.976 388.912ZM113.105 354.182L114.091 357.174L83.6091 367.229L82.6222 364.237L95.8471 359.874L94.1594 354.758L78.2171 350.882L77.0872 347.456L94.5006 351.857L94.5873 351.828L107.369 336.795L108.528 340.307L96.8478 353.871L98.5354 358.988L113.105 354.182ZM103.288 334.869C105.417 331.788 106.182 327.843 105.517 324.205C104.401 318.096 99.9346 315.246 95.0838 316.132C89.6404 317.127 88.5233 322.002 87.4873 326.525C86.5914 330.435 85.7561 334.081 82.2361 334.724C78.9124 335.332 76.3863 332.684 75.7298 329.09C75.2702 326.575 75.8475 323.638 77.1526 321.636L74.2685 320.585C72.6413 323.11 72.1991 326.533 72.7408 329.497C73.7584 335.067 77.8333 338.824 82.9985 337.881C88.1489 336.939 89.2734 332.239 90.3393 327.783C91.2998 323.768 92.2128 319.952 95.9809 319.263C99.2597 318.664 101.855 320.929 102.536 324.656C103.111 327.801 102.141 331.134 100.571 333.463L103.288 334.869ZM200.661 111.671L189.209 117.754L187.881 115.254L199.333 109.171L200.661 111.671ZM264.217 104.702C254.933 105.893 247.063 99.4453 245.861 90.0708C244.693 80.9681 250.71 72.9692 259.994 71.7783C269.323 70.5816 277.119 76.8087 278.286 85.9115C279.489 95.2859 273.546 103.505 264.217 104.702ZM260.372 74.722C252.945 75.6747 248.157 82.1349 249.122 89.6526C250.121 97.442 256.413 102.711 263.84 101.758C271.312 100.8 276.025 94.1191 275.026 86.3297C274.061 78.812 267.844 73.7635 260.372 74.722ZM285.257 102.127L288.404 102.268L289.01 88.767L297.083 89.1291L303.684 102.954L307.333 103.117L300.934 89.8959C300.471 89.0068 300.124 88.5799 300.124 88.5799L300.128 88.4887C303.822 87.6489 306.443 84.2472 306.637 79.914C306.811 76.0369 305.066 73.1707 302.254 71.6735C300.957 71.0212 299.466 70.6344 296.41 70.4973L286.695 70.0616L285.257 102.127ZM289.137 85.939L289.715 73.0307L296.101 73.3171C298.382 73.4194 299.377 73.6468 300.271 74.0983C302.372 75.1523 303.509 77.3057 303.395 79.86C303.215 83.8739 300.631 86.4545 296.754 86.2806L289.137 85.939ZM318.606 104.732L315.513 104.13L321.643 72.6232L324.735 73.2248L322.076 86.8943L327.365 87.9231L338.539 75.9102L342.08 76.599L329.729 89.6389L329.711 89.7286L336.578 108.228L332.948 107.522L326.824 90.7019L321.535 89.673L318.606 104.732ZM339.659 105.415C341.316 108.773 344.392 111.36 347.894 112.547C353.775 114.542 358.437 112.025 360.021 107.355C361.799 102.115 358.081 98.7683 354.633 95.6643C351.651 92.9802 348.871 90.4776 350.02 87.0889C351.106 83.8892 354.648 82.9693 358.107 84.1425C360.529 84.9638 362.814 86.8961 363.929 89.01L366.25 87.0008C364.834 84.3511 362.059 82.3007 359.205 81.3327C353.843 79.5142 348.578 81.2481 346.892 86.2206C345.21 91.1789 348.771 94.4468 352.146 97.5446C355.188 100.336 358.079 102.989 356.849 106.617C355.778 109.773 352.538 110.94 348.949 109.723C345.922 108.696 343.48 106.229 342.209 103.725L339.659 105.415ZM366.478 118.865L363.688 117.401L378.605 88.9797L381.395 90.4438L374.605 103.381L391.059 112.017L397.849 99.0798L400.679 100.565L385.762 128.986L382.932 127.501L389.743 114.523L373.289 105.887L366.478 118.865ZM402.514 119.809C396.643 127.215 397.522 137.351 404.857 143.166C412.227 149.009 422.26 147.524 428.132 140.118C433.833 132.926 432.848 122.997 425.477 117.154C418.143 111.34 408.215 112.617 402.514 119.809ZM405.09 121.851C409.799 115.912 417.766 114.828 423.634 119.48C429.537 124.16 430.264 132.136 425.556 138.075C420.677 144.229 412.604 145.52 406.7 140.84C400.832 136.188 400.212 128.005 405.09 121.851ZM424.178 159.752L422.071 157.41L445.935 135.945L453.355 144.194C457.172 148.437 457.197 154.064 452.784 158.033C448.337 162.033 442.676 161.475 438.86 157.232L433.547 151.325L424.178 159.752ZM445.937 140.18L435.652 149.432L440.69 155.033C443.56 158.224 447.357 158.554 450.616 155.623C453.841 152.722 453.846 148.972 451.006 145.815L445.937 140.18Z" fill="white"/>
<path fill-rule="evenodd" clip-rule="evenodd" d="M187.899 217.404C186.17 217.404 185.08 219.265 185.927 220.773L275.243 379.85C275.643 380.563 276.397 381.004 277.215 381.004H301.37C302.188 381.004 302.942 380.563 303.343 379.85L392.659 220.773C393.505 219.265 392.416 217.404 390.687 217.404H357.083C356.258 217.404 355.497 217.853 355.1 218.577L291.276 334.896C290.417 336.461 288.169 336.461 287.31 334.896L223.485 218.577C223.088 217.853 222.328 217.404 221.503 217.404H187.899ZM327.774 221.192C328.597 219.685 327.507 217.846 325.789 217.846H253.452C251.734 217.846 250.643 219.685 251.467 221.192L275.706 265.548C276.103 266.274 276.864 266.725 277.691 266.725H301.55C302.377 266.725 303.138 266.274 303.535 265.548L327.774 221.192Z" fill="white"/>
</svg>
